<?xml version="1.0"?>
<svg xmlns="http://www.w3.org/2000/svg" fill="#068d68" id="Outline" viewBox="0 0 512 512" width="512" height="512">
<path fill="#068d68" d="M352,16H192a40.045,40.045,0,0,0-40,40V80a80,80,0,0,0,0,160V392a40.045,40.045,0,0,0,40,40H303.817l.183.319V488a8,8,0,0,0,8,8H432a8,8,0,0,0,8-8V433.7l15.519-42.674a8.021,8.021,0,0,0,.481-2.735V288a24,24,0,0,0-32-22.629V264a23.982,23.982,0,0,0-32-22.62V56A40.045,40.045,0,0,0,352,16ZM192,32H352a24.039,24.039,0,0,1,22.624,16H169.376A24.039,24.039,0,0,1,192,32ZM168,64H376V233.381a23.944,23.944,0,0,0-16-.01V120a8,8,0,0,0-8-8H215.956A80.135,80.135,0,0,0,168,81.61Zm152,80H288a8,8,0,0,0-8,8v32a8,8,0,0,0,8,8h25.376A23.889,23.889,0,0,0,312,200v8H288a8,8,0,0,0-8,8v32a8,8,0,0,0,8,8h24v36.991a37.509,37.509,0,0,0-8,2.4V280a8,8,0,0,0-8-8H248a8,8,0,0,0-8,8v40H200V223.956A80.454,80.454,0,0,0,225.3,192H256a8,8,0,0,0,8-8V152a8,8,0,0,0-8-8H230.39a79.256,79.256,0,0,0-5.09-16H344v49.376a23.944,23.944,0,0,0-16,0V152A8,8,0,0,0,320,144Zm-8,16v16H296V160Zm0,64v16H296V224Zm-24,64v21.131A46.171,46.171,0,0,0,282.945,320H256V288ZM232,176V160h16v16Zm-80,48a64,64,0,1,1,64-64A64.072,64.072,0,0,1,152,224Zm16,14.39a79.277,79.277,0,0,0,16-5.09V328a8,8,0,0,0,8,8h88.122c-.077,1.407-.122,2.833-.122,4.286V384H168ZM192,416a24.039,24.039,0,0,1-22.624-16H285.49l9.163,16ZM400,256a8.009,8.009,0,0,1,8,8v72a8,8,0,0,0,16,0V288a8,8,0,0,1,16,0v98.877l-15.519,42.675a8.02,8.02,0,0,0-.481,2.734V480H320V430.19a7.99,7.99,0,0,0-1.058-3.975L296,386.157V340.286c0-8.273,1.742-25.968,16-30.766V336a8,8,0,0,0,16,0V304a8.008,8.008,0,0,0-.225-1.857,8,8,0,0,0,.225-1.857V200a8,8,0,0,1,16,0V309.048a8,8,0,0,0,16,0V256a8,8,0,0,1,16,0v64a8,8,0,0,0,16,0V264A8.009,8.009,0,0,1,400,256Z"/><path d="M256,208H224a8,8,0,0,0-8,8v32a8,8,0,0,0,8,8h32a8,8,0,0,0,8-8V216A8,8,0,0,0,256,208Zm-8,32H232V224h16Z"/>
<path fill="#068d68" d="M178.343,130.343,136,172.687l-10.343-10.344a8,8,0,0,0-11.314,11.314l16,16a8,8,0,0,0,11.314,0l48-48a8,8,0,0,0-11.314-11.314Z"/><path fill= "#068d68" d="M256,96h96a8,8,0,0,0,0-16H256a8,8,0,0,0,0,16Z"/><circle  cx="224" cy="88" r="8"/>
<path fill="#068d68" d="M224,352H192a8,8,0,0,0,0,16h32a8,8,0,0,0,0-16Z"/></svg>
